<?xml version="1.0" standalone="no"?>
<!DOCTYPE svg PUBLIC "-//W3C//DTD SVG 20010904//EN"
 "http://www.w3.org/TR/2001/REC-SVG-20010904/DTD/svg10.dtd">
<svg version="1.0" xmlns="http://www.w3.org/2000/svg"
 width="280.000000pt" height="280.000000pt" viewBox="0 0 280.000000 280.000000"
 preserveAspectRatio="xMidYMid meet">
<metadata>
Created by potrace 1.11, written by Peter Selinger 2001-2013
</metadata>
<g transform="translate(0.000000,280.000000) scale(0.100000,-0.100000)"
fill="#000000" stroke="none">
<path d="M300 1485 l0 -1105 1095 0 1095 0 0 1105 0 1105 -1095 0 -1095 0 0
-1105z m2140 0 l0 -1055 -1045 0 -1045 0 0 1055 0 1055 1045 0 1045 0 0 -1055z"/>
<path d="M1710 2173 c-38 -14 -117 -17 -493 -22 l-449 -6 -29 -33 c-48 -53
-32 -123 31 -137 78 -17 95 -98 95 -465 0 -368 -14 -443 -87 -476 -21 -10 -43
-25 -49 -35 -16 -30 -10 -75 12 -95 20 -18 48 -19 513 -26 270 -3 521 -9 557
-13 65 -7 66 -7 93 25 15 18 38 55 52 82 23 46 24 56 22 190 l-3 142 -32 10
c-55 15 -94 -3 -130 -59 -101 -158 -132 -177 -303 -183 -129 -4 -165 4 -180
44 -17 45 -23 255 -8 283 21 38 41 46 78 31 39 -16 60 -47 71 -107 12 -63 23
-73 81 -73 38 0 54 5 73 24 76 76 86 416 15 516 -36 51 -126 50 -158 -1 -8
-12 -17 -46 -22 -76 -12 -71 -23 -83 -77 -83 -81 0 -83 4 -83 145 0 117 1 126
24 152 24 28 25 28 143 28 145 -1 192 -19 249 -96 44 -60 59 -69 118 -69 87 0
126 70 107 191 -27 163 -112 234 -231 192z"/>
</g>
</svg>
